<svg width="315" height="201" viewBox="0 0 315 201" fill="none" xmlns="http://www.w3.org/2000/svg">
<g filter="url(#filter0_i_1:10)">
<circle cx="100.5" cy="100.5" r="100.5" fill="#42C7CF"/>
</g>
<g filter="url(#filter1_i_1:10)">
<circle cx="110.5" cy="100.5" r="100.5" fill="#209E97"/>
</g>
<path d="M110.5 30L112.442 95.9407L161.765 50.649L115.189 98.6115L183 100.5L115.189 102.389L161.765 150.351L112.442 105.059L110.5 171L108.558 105.059L59.2348 150.351L105.811 102.389L38 100.5L105.811 98.6115L59.2348 50.649L108.558 95.9407L110.5 30Z" fill="#C4C4C4"/>
<path d="M75.5 30L77.4421 95.9407L126.765 50.649L80.1887 98.6115L148 100.5L80.1887 102.389L126.765 150.351L77.4421 105.059L75.5 171L73.5579 105.059L24.2348 150.351L70.8113 102.389L3 100.5L70.8113 98.6115L24.2348 50.649L73.5579 95.9407L75.5 30Z" fill="#C4C4C4"/>
<path d="M151.5 30L153.442 95.9407L202.765 50.649L156.189 98.6115L224 100.5L156.189 102.389L202.765 150.351L153.442 105.059L151.5 171L149.558 105.059L100.235 150.351L146.811 102.389L79 100.5L146.811 98.6115L100.235 50.649L149.558 95.9407L151.5 30Z" fill="#C4C4C4"/>
<path d="M28.8867 83.2461C30.7969 83.2461 32.8359 83.3164 35.0039 83.457C37.1836 83.5859 39.4688 83.8438 41.8594 84.2305V103.848C41.8594 104.633 41.6836 105.336 41.332 105.957C40.9922 106.566 40.5176 107.1 39.9082 107.557C39.3105 108.002 38.5957 108.383 37.7637 108.699C36.9434 109.004 36.0527 109.25 35.0918 109.438C34.1426 109.625 33.1406 109.76 32.0859 109.842C31.0312 109.924 29.9766 109.965 28.9219 109.965C27.8438 109.965 26.7832 109.924 25.7402 109.842C24.6973 109.76 23.707 109.625 22.7695 109.438C21.832 109.25 20.959 109.004 20.1504 108.699C19.3535 108.383 18.6504 108.002 18.041 107.557C17.4316 107.1 16.9395 106.566 16.5645 105.957C16.1895 105.348 15.9609 104.645 15.8789 103.848L20.4492 102.582C20.4492 103.309 20.6953 103.9 21.1875 104.357C21.6797 104.814 22.3242 105.172 23.1211 105.43C23.9297 105.688 24.8379 105.863 25.8457 105.957C26.8535 106.051 27.8789 106.098 28.9219 106.098C29.9883 106.098 31.0195 106.051 32.0156 105.957C33.0234 105.852 33.9141 105.67 34.6875 105.412C35.4727 105.143 36.0996 104.779 36.5684 104.322C37.0488 103.865 37.2891 103.285 37.2891 102.582V87.8516C36.1172 87.6875 34.8574 87.5527 33.5098 87.4473C32.1738 87.3418 30.8086 87.2891 29.4141 87.2891H28.8164C26.8359 87.3125 24.8438 87.4121 22.8398 87.5879C20.8477 87.752 18.8086 88.0625 16.7227 88.5195V84.0898C18.9492 83.75 21.0762 83.5273 23.1035 83.4219C25.1426 83.3047 27.0703 83.2461 28.8867 83.2461ZM59.2617 89.9609C59.8594 89.9609 60.5801 89.9902 61.4238 90.0488C62.2676 90.1074 63.1406 90.2129 64.043 90.3652C64.957 90.5059 65.8594 90.7109 66.75 90.9805C67.6406 91.2383 68.4375 91.5723 69.1406 91.9824C69.8555 92.3926 70.4297 92.8906 70.8633 93.4766C71.3086 94.0508 71.5312 94.7305 71.5312 95.5156V101.457H51.3867V105.957C52.8047 106.156 54.1699 106.297 55.4824 106.379C56.7949 106.449 58.0547 106.484 59.2617 106.484C61.1016 106.484 62.7656 106.414 64.2539 106.273C65.7539 106.133 67.0488 105.975 68.1387 105.799C69.3926 105.6 70.5234 105.371 71.5312 105.113V109.016C69.3047 109.367 67.1543 109.619 65.0801 109.771C63.0176 109.924 61.0781 110 59.2617 110C57.4336 110 55.7754 109.953 54.2871 109.859C52.7988 109.754 51.5215 109.637 50.4551 109.508C49.2129 109.367 48.0938 109.203 47.0977 109.016V95.5156C47.0977 94.7305 47.291 94.0508 47.6777 93.4766C48.0645 92.8906 48.5801 92.3926 49.2246 91.9824C49.8691 91.5723 50.6074 91.2383 51.4395 90.9805C52.2832 90.7109 53.1562 90.5059 54.0586 90.3652C54.9609 90.2129 55.8574 90.1074 56.748 90.0488C57.6504 89.9902 58.4883 89.9609 59.2617 89.9609ZM51.3867 98.6445H67.1719V96.6055C67.1719 96.125 67.0547 95.7148 66.8203 95.375C66.5859 95.0234 66.2695 94.7305 65.8711 94.4961C65.4844 94.2617 65.0273 94.0742 64.5 93.9336C63.9844 93.7812 63.4453 93.6699 62.8828 93.5996C62.3203 93.5176 61.752 93.4648 61.1777 93.4414C60.6152 93.418 60.082 93.4062 59.5781 93.4062C59.0508 93.4062 58.4824 93.418 57.873 93.4414C57.2754 93.4648 56.6719 93.5176 56.0625 93.5996C55.4531 93.6816 54.8672 93.7988 54.3047 93.9512C53.7422 94.0918 53.2441 94.2852 52.8105 94.5312C52.377 94.7656 52.0312 95.0586 51.7734 95.4102C51.5156 95.75 51.3867 96.1602 51.3867 96.6406V98.6445ZM82.6758 89.7148H87.1406V92.668H82.6758V110H78.4922V92.668H75.1875V89.7148H78.4922V83.5977H82.6758V89.7148ZM102.398 89.9609C103.793 89.9609 105.152 90.0488 106.477 90.2246C107.801 90.3887 108.99 90.6758 110.045 91.0859C111.1 91.4844 111.967 92.0293 112.646 92.7207C113.326 93.4121 113.73 94.2734 113.859 95.3047L109.781 96.4297C109.781 95.8203 109.57 95.3164 109.148 94.918C108.738 94.5078 108.188 94.1914 107.496 93.9688C106.816 93.7344 106.031 93.5703 105.141 93.4766C104.25 93.3828 103.336 93.3359 102.398 93.3359C101.496 93.3359 100.6 93.3828 99.709 93.4766C98.8301 93.5586 98.0391 93.7168 97.3359 93.9512C96.6445 94.1738 96.082 94.4844 95.6484 94.8828C95.2266 95.2812 95.0156 95.7969 95.0156 96.4297V98.5742H113.859V104.656C113.859 105.348 113.707 105.963 113.402 106.502C113.098 107.029 112.676 107.492 112.137 107.891C111.598 108.277 110.959 108.611 110.221 108.893C109.494 109.162 108.703 109.379 107.848 109.543C107.004 109.707 106.113 109.824 105.176 109.895C104.25 109.965 103.324 110 102.398 110C100.98 110 99.6094 109.918 98.2852 109.754C96.9609 109.578 95.7715 109.291 94.7168 108.893C93.6621 108.482 92.7949 107.938 92.1152 107.258C91.4473 106.566 91.0547 105.699 90.9375 104.656L95.0156 103.531C95.0156 104.176 95.2266 104.697 95.6484 105.096C96.082 105.494 96.6445 105.805 97.3359 106.027C98.0391 106.25 98.8301 106.402 99.709 106.484C100.6 106.555 101.496 106.59 102.398 106.59C103.336 106.59 104.25 106.549 105.141 106.467C106.031 106.373 106.816 106.215 107.496 105.992C108.188 105.758 108.738 105.447 109.148 105.061C109.57 104.662 109.781 104.152 109.781 103.531V101.387H90.9375V95.3047C90.9375 94.6133 91.0898 94.0039 91.3945 93.4766C91.6992 92.9375 92.1152 92.4746 92.6426 92.0879C93.1816 91.6895 93.8145 91.3555 94.541 91.0859C95.2676 90.8047 96.0527 90.582 96.8965 90.418C97.752 90.2539 98.6426 90.1367 99.5684 90.0664C100.506 89.9961 101.449 89.9609 102.398 89.9609ZM130.98 89.9609C131.578 89.9609 132.299 89.9902 133.143 90.0488C133.986 90.1074 134.859 90.2129 135.762 90.3652C136.676 90.5059 137.578 90.7109 138.469 90.9805C139.359 91.2383 140.156 91.5723 140.859 91.9824C141.574 92.3926 142.148 92.8906 142.582 93.4766C143.027 94.0508 143.25 94.7305 143.25 95.5156V101.457H123.105V105.957C124.523 106.156 125.889 106.297 127.201 106.379C128.514 106.449 129.773 106.484 130.98 106.484C132.82 106.484 134.484 106.414 135.973 106.273C137.473 106.133 138.768 105.975 139.857 105.799C141.111 105.6 142.242 105.371 143.25 105.113V109.016C141.023 109.367 138.873 109.619 136.799 109.771C134.736 109.924 132.797 110 130.98 110C129.152 110 127.494 109.953 126.006 109.859C124.518 109.754 123.24 109.637 122.174 109.508C120.932 109.367 119.812 109.203 118.816 109.016V95.5156C118.816 94.7305 119.01 94.0508 119.396 93.4766C119.783 92.8906 120.299 92.3926 120.943 91.9824C121.588 91.5723 122.326 91.2383 123.158 90.9805C124.002 90.7109 124.875 90.5059 125.777 90.3652C126.68 90.2129 127.576 90.1074 128.467 90.0488C129.369 89.9902 130.207 89.9609 130.98 89.9609ZM123.105 98.6445H138.891V96.6055C138.891 96.125 138.773 95.7148 138.539 95.375C138.305 95.0234 137.988 94.7305 137.59 94.4961C137.203 94.2617 136.746 94.0742 136.219 93.9336C135.703 93.7812 135.164 93.6699 134.602 93.5996C134.039 93.5176 133.471 93.4648 132.896 93.4414C132.334 93.418 131.801 93.4062 131.297 93.4062C130.77 93.4062 130.201 93.418 129.592 93.4414C128.994 93.4648 128.391 93.5176 127.781 93.5996C127.172 93.6816 126.586 93.7988 126.023 93.9512C125.461 94.0918 124.963 94.2852 124.529 94.5312C124.096 94.7656 123.75 95.0586 123.492 95.4102C123.234 95.75 123.105 96.1602 123.105 96.6406V98.6445ZM154.395 89.7148H158.859V92.668H154.395V110H150.211V92.668H146.906V89.7148H150.211V83.5977H154.395V89.7148ZM168.738 89.7148H173.203V92.668H168.738V110H164.555V92.668H161.25V89.7148H164.555V83.5977H168.738V89.7148ZM189.41 89.9609C190.008 89.9609 190.729 89.9902 191.572 90.0488C192.416 90.1074 193.289 90.2129 194.191 90.3652C195.105 90.5059 196.008 90.7109 196.898 90.9805C197.789 91.2383 198.586 91.5723 199.289 91.9824C200.004 92.3926 200.578 92.8906 201.012 93.4766C201.457 94.0508 201.68 94.7305 201.68 95.5156V101.457H181.535V105.957C182.953 106.156 184.318 106.297 185.631 106.379C186.943 106.449 188.203 106.484 189.41 106.484C191.25 106.484 192.914 106.414 194.402 106.273C195.902 106.133 197.197 105.975 198.287 105.799C199.541 105.6 200.672 105.371 201.68 105.113V109.016C199.453 109.367 197.303 109.619 195.229 109.771C193.166 109.924 191.227 110 189.41 110C187.582 110 185.924 109.953 184.436 109.859C182.947 109.754 181.67 109.637 180.604 109.508C179.361 109.367 178.242 109.203 177.246 109.016V95.5156C177.246 94.7305 177.439 94.0508 177.826 93.4766C178.213 92.8906 178.729 92.3926 179.373 91.9824C180.018 91.5723 180.756 91.2383 181.588 90.9805C182.432 90.7109 183.305 90.5059 184.207 90.3652C185.109 90.2129 186.006 90.1074 186.896 90.0488C187.799 89.9902 188.637 89.9609 189.41 89.9609ZM181.535 98.6445H197.32V96.6055C197.32 96.125 197.203 95.7148 196.969 95.375C196.734 95.0234 196.418 94.7305 196.02 94.4961C195.633 94.2617 195.176 94.0742 194.648 93.9336C194.133 93.7812 193.594 93.6699 193.031 93.5996C192.469 93.5176 191.9 93.4648 191.326 93.4414C190.764 93.418 190.23 93.4062 189.727 93.4062C189.199 93.4062 188.631 93.418 188.021 93.4414C187.424 93.4648 186.82 93.5176 186.211 93.5996C185.602 93.6816 185.016 93.7988 184.453 93.9512C183.891 94.0918 183.393 94.2852 182.959 94.5312C182.525 94.7656 182.18 95.0586 181.922 95.4102C181.664 95.75 181.535 96.1602 181.535 96.6406V98.6445ZM222.668 89.9609C222.668 91.1797 222.627 92.4512 222.545 93.7754C222.463 95.0879 222.305 96.4414 222.07 97.8359H217.816C217.922 97.4375 218.021 97.0039 218.115 96.5352C218.186 96.1367 218.25 95.6738 218.309 95.1465C218.379 94.6074 218.414 94.0391 218.414 93.4414C217.383 93.4648 216.527 93.5645 215.848 93.7402C215.18 93.9043 214.623 94.1035 214.178 94.3379C213.732 94.5605 213.369 94.7891 213.088 95.0234C212.807 95.2578 212.555 95.4453 212.332 95.5859V110H207.832V95.4805C207.785 95.1055 207.674 94.7891 207.498 94.5312C207.334 94.2734 207.158 94.0625 206.971 93.8984C206.76 93.6992 206.52 93.5352 206.25 93.4062L208.113 89.9609C208.547 90.1133 208.975 90.3184 209.396 90.5762C209.76 90.7988 210.141 91.0859 210.539 91.4375C210.949 91.7773 211.312 92.1992 211.629 92.7031C212.227 92.293 212.777 91.9473 213.281 91.666C213.785 91.373 214.271 91.127 214.74 90.9277C215.221 90.7285 215.713 90.5762 216.217 90.4707C216.732 90.3535 217.295 90.2598 217.904 90.1895C218.525 90.1191 219.217 90.0723 219.979 90.0488C220.752 90.0137 221.648 89.9844 222.668 89.9609Z" fill="#0D2C2E"/>
<defs>
<filter id="filter0_i_1:10" x="0" y="0" width="201" height="205" filterUnits="userSpaceOnUse" color-interpolation-filters="sRGB">
<feFlood flood-opacity="0" result="BackgroundImageFix"/>
<feBlend mode="normal" in="SourceGraphic" in2="BackgroundImageFix" result="shape"/>
<feColorMatrix in="SourceAlpha" type="matrix" values="0 0 0 0 0 0 0 0 0 0 0 0 0 0 0 0 0 0 127 0" result="hardAlpha"/>
<feOffset dy="4"/>
<feGaussianBlur stdDeviation="2"/>
<feComposite in2="hardAlpha" operator="arithmetic" k2="-1" k3="1"/>
<feColorMatrix type="matrix" values="0 0 0 0 0 0 0 0 0 0 0 0 0 0 0 0 0 0 0.25 0"/>
<feBlend mode="normal" in2="shape" result="effect1_innerShadow_1:10"/>
</filter>
<filter id="filter1_i_1:10" x="10" y="0" width="201" height="205" filterUnits="userSpaceOnUse" color-interpolation-filters="sRGB">
<feFlood flood-opacity="0" result="BackgroundImageFix"/>
<feBlend mode="normal" in="SourceGraphic" in2="BackgroundImageFix" result="shape"/>
<feColorMatrix in="SourceAlpha" type="matrix" values="0 0 0 0 0 0 0 0 0 0 0 0 0 0 0 0 0 0 127 0" result="hardAlpha"/>
<feOffset dy="4"/>
<feGaussianBlur stdDeviation="2"/>
<feComposite in2="hardAlpha" operator="arithmetic" k2="-1" k3="1"/>
<feColorMatrix type="matrix" values="0 0 0 0 0 0 0 0 0 0 0 0 0 0 0 0 0 0 0.25 0"/>
<feBlend mode="normal" in2="shape" result="effect1_innerShadow_1:10"/>
</filter>
</defs>
</svg>
