<svg width="353" height="353" viewBox="0 0 353 353" fill="none" xmlns="http://www.w3.org/2000/svg">
<path d="M176.5 0L329.353 264.75H23.6465L176.5 0Z" fill="#04043D"/>
<path d="M176 35L302.44 247.25H49.5603L176 35Z" fill="#000063"/>
<path d="M217.5 120L219.442 185.941L268.765 140.649L222.189 188.611L290 190.5L222.189 192.389L268.765 240.351L219.442 195.059L217.5 261L215.558 195.059L166.235 240.351L212.811 192.389L145 190.5L212.811 188.611L166.235 140.649L215.558 185.941L217.5 120Z" fill="#03554B"/>
<path d="M176.5 120L178.442 185.941L227.765 140.649L181.189 188.611L249 190.5L181.189 192.389L227.765 240.351L178.442 195.059L176.5 261L174.558 195.059L125.235 240.351L171.811 192.389L104 190.5L171.811 188.611L125.235 140.649L174.558 185.941L176.5 120Z" fill="#105048"/>
<path d="M141.5 120L143.442 185.941L192.765 140.649L146.189 188.611L214 190.5L146.189 192.389L192.765 240.351L143.442 195.059L141.5 261L139.558 195.059L90.2348 240.351L136.811 192.389L69 190.5L136.811 188.611L90.2348 140.649L139.558 185.941L141.5 120Z" fill="#00695C"/>
<path d="M88.8867 181.246C90.7969 181.246 92.8359 181.316 95.0039 181.457C97.1836 181.586 99.4688 181.844 101.859 182.23V201.848C101.859 202.633 101.684 203.336 101.332 203.957C100.992 204.566 100.518 205.1 99.9082 205.557C99.3105 206.002 98.5957 206.383 97.7637 206.699C96.9434 207.004 96.0527 207.25 95.0918 207.438C94.1426 207.625 93.1406 207.76 92.0859 207.842C91.0312 207.924 89.9766 207.965 88.9219 207.965C87.8438 207.965 86.7832 207.924 85.7402 207.842C84.6973 207.76 83.707 207.625 82.7695 207.438C81.832 207.25 80.959 207.004 80.1504 206.699C79.3535 206.383 78.6504 206.002 78.041 205.557C77.4316 205.1 76.9395 204.566 76.5645 203.957C76.1895 203.348 75.9609 202.645 75.8789 201.848L80.4492 200.582C80.4492 201.309 80.6953 201.9 81.1875 202.357C81.6797 202.814 82.3242 203.172 83.1211 203.43C83.9297 203.688 84.8379 203.863 85.8457 203.957C86.8535 204.051 87.8789 204.098 88.9219 204.098C89.9883 204.098 91.0195 204.051 92.0156 203.957C93.0234 203.852 93.9141 203.67 94.6875 203.412C95.4727 203.143 96.0996 202.779 96.5684 202.322C97.0488 201.865 97.2891 201.285 97.2891 200.582V185.852C96.1172 185.688 94.8574 185.553 93.5098 185.447C92.1738 185.342 90.8086 185.289 89.4141 185.289H88.8164C86.8359 185.312 84.8438 185.412 82.8398 185.588C80.8477 185.752 78.8086 186.062 76.7227 186.52V182.09C78.9492 181.75 81.0762 181.527 83.1035 181.422C85.1426 181.305 87.0703 181.246 88.8867 181.246ZM119.262 187.961C119.859 187.961 120.58 187.99 121.424 188.049C122.268 188.107 123.141 188.213 124.043 188.365C124.957 188.506 125.859 188.711 126.75 188.98C127.641 189.238 128.438 189.572 129.141 189.982C129.855 190.393 130.43 190.891 130.863 191.477C131.309 192.051 131.531 192.73 131.531 193.516V199.457H111.387V203.957C112.805 204.156 114.17 204.297 115.482 204.379C116.795 204.449 118.055 204.484 119.262 204.484C121.102 204.484 122.766 204.414 124.254 204.273C125.754 204.133 127.049 203.975 128.139 203.799C129.393 203.6 130.523 203.371 131.531 203.113V207.016C129.305 207.367 127.154 207.619 125.08 207.771C123.018 207.924 121.078 208 119.262 208C117.434 208 115.775 207.953 114.287 207.859C112.799 207.754 111.521 207.637 110.455 207.508C109.213 207.367 108.094 207.203 107.098 207.016V193.516C107.098 192.73 107.291 192.051 107.678 191.477C108.064 190.891 108.58 190.393 109.225 189.982C109.869 189.572 110.607 189.238 111.439 188.98C112.283 188.711 113.156 188.506 114.059 188.365C114.961 188.213 115.857 188.107 116.748 188.049C117.65 187.99 118.488 187.961 119.262 187.961ZM111.387 196.645H127.172V194.605C127.172 194.125 127.055 193.715 126.82 193.375C126.586 193.023 126.27 192.73 125.871 192.496C125.484 192.262 125.027 192.074 124.5 191.934C123.984 191.781 123.445 191.67 122.883 191.6C122.32 191.518 121.752 191.465 121.178 191.441C120.615 191.418 120.082 191.406 119.578 191.406C119.051 191.406 118.482 191.418 117.873 191.441C117.275 191.465 116.672 191.518 116.062 191.6C115.453 191.682 114.867 191.799 114.305 191.951C113.742 192.092 113.244 192.285 112.811 192.531C112.377 192.766 112.031 193.059 111.773 193.41C111.516 193.75 111.387 194.16 111.387 194.641V196.645ZM142.676 187.715H147.141V190.668H142.676V208H138.492V190.668H135.188V187.715H138.492V181.598H142.676V187.715ZM162.398 187.961C163.793 187.961 165.152 188.049 166.477 188.225C167.801 188.389 168.99 188.676 170.045 189.086C171.1 189.484 171.967 190.029 172.646 190.721C173.326 191.412 173.73 192.273 173.859 193.305L169.781 194.43C169.781 193.82 169.57 193.316 169.148 192.918C168.738 192.508 168.188 192.191 167.496 191.969C166.816 191.734 166.031 191.57 165.141 191.477C164.25 191.383 163.336 191.336 162.398 191.336C161.496 191.336 160.6 191.383 159.709 191.477C158.83 191.559 158.039 191.717 157.336 191.951C156.645 192.174 156.082 192.484 155.648 192.883C155.227 193.281 155.016 193.797 155.016 194.43V196.574H173.859V202.656C173.859 203.348 173.707 203.963 173.402 204.502C173.098 205.029 172.676 205.492 172.137 205.891C171.598 206.277 170.959 206.611 170.221 206.893C169.494 207.162 168.703 207.379 167.848 207.543C167.004 207.707 166.113 207.824 165.176 207.895C164.25 207.965 163.324 208 162.398 208C160.98 208 159.609 207.918 158.285 207.754C156.961 207.578 155.771 207.291 154.717 206.893C153.662 206.482 152.795 205.938 152.115 205.258C151.447 204.566 151.055 203.699 150.938 202.656L155.016 201.531C155.016 202.176 155.227 202.697 155.648 203.096C156.082 203.494 156.645 203.805 157.336 204.027C158.039 204.25 158.83 204.402 159.709 204.484C160.6 204.555 161.496 204.59 162.398 204.59C163.336 204.59 164.25 204.549 165.141 204.467C166.031 204.373 166.816 204.215 167.496 203.992C168.188 203.758 168.738 203.447 169.148 203.061C169.57 202.662 169.781 202.152 169.781 201.531V199.387H150.938V193.305C150.938 192.613 151.09 192.004 151.395 191.477C151.699 190.938 152.115 190.475 152.643 190.088C153.182 189.689 153.814 189.355 154.541 189.086C155.268 188.805 156.053 188.582 156.896 188.418C157.752 188.254 158.643 188.137 159.568 188.066C160.506 187.996 161.449 187.961 162.398 187.961ZM190.98 187.961C191.578 187.961 192.299 187.99 193.143 188.049C193.986 188.107 194.859 188.213 195.762 188.365C196.676 188.506 197.578 188.711 198.469 188.98C199.359 189.238 200.156 189.572 200.859 189.982C201.574 190.393 202.148 190.891 202.582 191.477C203.027 192.051 203.25 192.73 203.25 193.516V199.457H183.105V203.957C184.523 204.156 185.889 204.297 187.201 204.379C188.514 204.449 189.773 204.484 190.98 204.484C192.82 204.484 194.484 204.414 195.973 204.273C197.473 204.133 198.768 203.975 199.857 203.799C201.111 203.6 202.242 203.371 203.25 203.113V207.016C201.023 207.367 198.873 207.619 196.799 207.771C194.736 207.924 192.797 208 190.98 208C189.152 208 187.494 207.953 186.006 207.859C184.518 207.754 183.24 207.637 182.174 207.508C180.932 207.367 179.812 207.203 178.816 207.016V193.516C178.816 192.73 179.01 192.051 179.396 191.477C179.783 190.891 180.299 190.393 180.943 189.982C181.588 189.572 182.326 189.238 183.158 188.98C184.002 188.711 184.875 188.506 185.777 188.365C186.68 188.213 187.576 188.107 188.467 188.049C189.369 187.99 190.207 187.961 190.98 187.961ZM183.105 196.645H198.891V194.605C198.891 194.125 198.773 193.715 198.539 193.375C198.305 193.023 197.988 192.73 197.59 192.496C197.203 192.262 196.746 192.074 196.219 191.934C195.703 191.781 195.164 191.67 194.602 191.6C194.039 191.518 193.471 191.465 192.896 191.441C192.334 191.418 191.801 191.406 191.297 191.406C190.77 191.406 190.201 191.418 189.592 191.441C188.994 191.465 188.391 191.518 187.781 191.6C187.172 191.682 186.586 191.799 186.023 191.951C185.461 192.092 184.963 192.285 184.529 192.531C184.096 192.766 183.75 193.059 183.492 193.41C183.234 193.75 183.105 194.16 183.105 194.641V196.645ZM214.395 187.715H218.859V190.668H214.395V208H210.211V190.668H206.906V187.715H210.211V181.598H214.395V187.715ZM228.738 187.715H233.203V190.668H228.738V208H224.555V190.668H221.25V187.715H224.555V181.598H228.738V187.715ZM249.41 187.961C250.008 187.961 250.729 187.99 251.572 188.049C252.416 188.107 253.289 188.213 254.191 188.365C255.105 188.506 256.008 188.711 256.898 188.98C257.789 189.238 258.586 189.572 259.289 189.982C260.004 190.393 260.578 190.891 261.012 191.477C261.457 192.051 261.68 192.73 261.68 193.516V199.457H241.535V203.957C242.953 204.156 244.318 204.297 245.631 204.379C246.943 204.449 248.203 204.484 249.41 204.484C251.25 204.484 252.914 204.414 254.402 204.273C255.902 204.133 257.197 203.975 258.287 203.799C259.541 203.6 260.672 203.371 261.68 203.113V207.016C259.453 207.367 257.303 207.619 255.229 207.771C253.166 207.924 251.227 208 249.41 208C247.582 208 245.924 207.953 244.436 207.859C242.947 207.754 241.67 207.637 240.604 207.508C239.361 207.367 238.242 207.203 237.246 207.016V193.516C237.246 192.73 237.439 192.051 237.826 191.477C238.213 190.891 238.729 190.393 239.373 189.982C240.018 189.572 240.756 189.238 241.588 188.98C242.432 188.711 243.305 188.506 244.207 188.365C245.109 188.213 246.006 188.107 246.896 188.049C247.799 187.99 248.637 187.961 249.41 187.961ZM241.535 196.645H257.32V194.605C257.32 194.125 257.203 193.715 256.969 193.375C256.734 193.023 256.418 192.73 256.02 192.496C255.633 192.262 255.176 192.074 254.648 191.934C254.133 191.781 253.594 191.67 253.031 191.6C252.469 191.518 251.9 191.465 251.326 191.441C250.764 191.418 250.23 191.406 249.727 191.406C249.199 191.406 248.631 191.418 248.021 191.441C247.424 191.465 246.82 191.518 246.211 191.6C245.602 191.682 245.016 191.799 244.453 191.951C243.891 192.092 243.393 192.285 242.959 192.531C242.525 192.766 242.18 193.059 241.922 193.41C241.664 193.75 241.535 194.16 241.535 194.641V196.645ZM282.668 187.961C282.668 189.18 282.627 190.451 282.545 191.775C282.463 193.088 282.305 194.441 282.07 195.836H277.816C277.922 195.438 278.021 195.004 278.115 194.535C278.186 194.137 278.25 193.674 278.309 193.146C278.379 192.607 278.414 192.039 278.414 191.441C277.383 191.465 276.527 191.564 275.848 191.74C275.18 191.904 274.623 192.104 274.178 192.338C273.732 192.561 273.369 192.789 273.088 193.023C272.807 193.258 272.555 193.445 272.332 193.586V208H267.832V193.48C267.785 193.105 267.674 192.789 267.498 192.531C267.334 192.273 267.158 192.062 266.971 191.898C266.76 191.699 266.52 191.535 266.25 191.406L268.113 187.961C268.547 188.113 268.975 188.318 269.396 188.576C269.76 188.799 270.141 189.086 270.539 189.438C270.949 189.777 271.312 190.199 271.629 190.703C272.227 190.293 272.777 189.947 273.281 189.666C273.785 189.373 274.271 189.127 274.74 188.928C275.221 188.729 275.713 188.576 276.217 188.471C276.732 188.354 277.295 188.26 277.904 188.189C278.525 188.119 279.217 188.072 279.979 188.049C280.752 188.014 281.648 187.984 282.668 187.961Z" fill="white"/>
</svg>
